<svg height="40px" width="40px" viewBox="0 0 50 50" xmlns="http://www.w3.org/2000/svg" c-familyTree_familyTree="">
        <path d="M 23.75 2 C 18.46875 2 14.007813 3.617188 10.875 6.6875 C 7.742188 9.757813 6 14.25 6 19.78125 C 6 22.824219 6.769531 25.84375 6.875 28.9375 C 6.980469 32.03125 6.503906 35.160156 4 38.5625 C 3.84375 38.78125 3.78125 39.054688 3.828125 39.316406 C 3.875 39.582031 4.027344 39.816406 4.25 39.96875 C 4.25 39.96875 5.371094 40.722656 7.59375 41.53125 C 9.75 42.316406 13.050781 43.191406 17.53125 43.6875 C 17.542969 43.6875 17.550781 43.6875 17.5625 43.6875 C 19.820313 46.382813 22.390625 48 25 48 C 27.617188 48 30.207031 46.367188 32.46875 43.65625 C 36.972656 43.15625 40.339844 42.308594 42.5625 41.53125 C 44.847656 40.730469 46.03125 40 46.03125 40 C 46.273438 39.847656 46.4375 39.601563 46.484375 39.320313 C 46.53125 39.042969 46.457031 38.753906 46.28125 38.53125 C 43.730469 35.253906 43.207031 32.4375 43.25 29.5625 C 43.292969 26.6875 44 23.753906 44 20.5625 C 44 17.34375 43.351563 13.84375 41.5625 11.03125 C 39.832031 8.316406 36.898438 6.351563 32.84375 6.21875 C 31.636719 4.992188 28.5 2 23.75 2 Z M 23.75 4 C 27.820313 4 30.734375 6.828125 31.71875 7.84375 C 31.90625 8.042969 32.164063 8.152344 32.4375 8.15625 C 36.109375 8.15625 38.378906 9.742188 39.875 12.09375 C 41.371094 14.445313 42 17.625 42 20.5625 C 42 23.441406 41.300781 26.359375 41.25 29.53125 C 41.207031 32.394531 41.847656 35.484375 44.03125 38.71875 C 43.617188 38.941406 43.390625 39.105469 41.90625 39.625 C 40.113281 40.253906 37.5 40.96875 34.03125 41.46875 C 35.574219 38.945313 38 34.117188 38 28.28125 C 38 20.625 33.609375 16.199219 32.40625 15.125 C 32.390625 15.109375 32.359375 15.074219 32.34375 15.0625 C 32.195313 14.832031 31.957031 14.675781 31.6875 14.625 C 31.675781 14.625 31.667969 14.625 31.65625 14.625 C 31.550781 14.609375 31.449219 14.609375 31.34375 14.625 C 31.324219 14.625 31.300781 14.625 31.28125 14.625 C 31.203125 14.648438 31.132813 14.679688 31.0625 14.71875 C 31.007813 14.746094 30.957031 14.777344 30.90625 14.8125 C 30.863281 14.839844 30.820313 14.871094 30.78125 14.90625 C 30.769531 14.925781 30.757813 14.949219 30.75 14.96875 C 30.730469 14.976563 30.707031 14.988281 30.6875 15 C 30.6875 15.011719 30.6875 15.019531 30.6875 15.03125 C 30.675781 15.042969 30.667969 15.050781 30.65625 15.0625 C 30.644531 15.082031 30.632813 15.105469 30.625 15.125 C 30.613281 15.136719 30.605469 15.144531 30.59375 15.15625 C 30.59375 15.175781 30.59375 15.199219 30.59375 15.21875 C 30.582031 15.230469 30.574219 15.238281 30.5625 15.25 C 30.5625 15.269531 30.5625 15.292969 30.5625 15.3125 C 30.550781 15.324219 30.542969 15.332031 30.53125 15.34375 C 30.53125 15.34375 29.347656 19.816406 23.71875 21.5625 C 21.917969 22.121094 19.0625 22.515625 16.59375 23.71875 C 14.125 24.921875 12 27.191406 12 31 C 12 35.625 14.003906 39.257813 15.5625 41.40625 C 12.359375 40.917969 9.929688 40.257813 8.28125 39.65625 C 6.832031 39.128906 6.597656 38.9375 6.21875 38.71875 C 8.402344 35.292969 8.980469 31.9375 8.875 28.875 C 8.761719 25.507813 8 22.464844 8 19.78125 C 8 14.660156 9.546875 10.746094 12.25 8.09375 C 14.953125 5.441406 18.871094 4 23.75 4 Z M 31.84375 17.3125 C 33.316406 18.867188 36 22.476563 36 28.28125 C 36 35.839844 31.480469 41.773438 31.28125 42.03125 C 31.257813 42.0625 31.238281 42.09375 31.21875 42.125 C 31.195313 42.15625 31.175781 42.1875 31.15625 42.21875 C 29.082031 44.808594 26.878906 46 25 46 C 23.167969 46 21 44.84375 18.96875 42.375 C 18.941406 42.332031 18.910156 42.289063 18.875 42.25 C 18.859375 42.230469 18.859375 42.207031 18.84375 42.1875 C 18.824219 42.164063 18.804688 42.144531 18.78125 42.125 C 18.769531 42.113281 18.761719 42.105469 18.75 42.09375 C 18.75 42.09375 18.667969 41.980469 18.65625 41.96875 C 18.625 41.945313 18.59375 41.925781 18.5625 41.90625 C 18.058594 41.414063 14 37.242188 14 31 C 14 27.875 15.40625 26.503906 17.46875 25.5 C 19.53125 24.496094 22.203125 24.113281 24.28125 23.46875 C 28.742188 22.085938 30.90625 19.089844 31.84375 17.3125 Z M 19.5 28 C 18.671875 28 18 28.671875 18 29.5 C 18 30.328125 18.671875 31 19.5 31 C 20.328125 31 21 30.328125 21 29.5 C 21 28.671875 20.328125 28 19.5 28 Z M 30.5 28 C 29.671875 28 29 28.671875 29 29.5 C 29 30.328125 29.671875 31 30.5 31 C 31.328125 31 32 30.328125 32 29.5 C 32 28.671875 31.328125 28 30.5 28 Z" c-familyTree_familyTree=""></path>
      </svg>