<svg height="40px" width="40px" viewBox="0 0 50 50" xmlns="http://www.w3.org/2000/svg" c-familyTree_familyTree="">
        <path d="M 24.71875 2 C 19.671875 2 15.683594 3.5 13 6.25 C 10.316406 9 9 12.925781 9 17.59375 C 9 19.527344 9.859375 23.265625 10.5625 25.46875 C 10.269531 25.71875 9.972656 25.878906 9.6875 26.3125 C 9.207031 27.046875 8.855469 28.074219 9 29.3125 C 9.421875 32.886719 11.664063 34.164063 12.40625 34.53125 C 12.691406 36.203125 13.554688 38.265625 14.96875 40.375 C 16.484375 42.636719 18.578125 44.808594 21.125 46.03125 C 21.171875 46.054688 21.203125 46.101563 21.25 46.125 C 22.167969 47.222656 23.464844 48 25 48 C 26.535156 48 27.832031 47.222656 28.75 46.125 C 28.796875 46.101563 28.828125 46.054688 28.875 46.03125 C 31.414063 44.804688 33.464844 42.636719 34.96875 40.375 C 36.367188 38.269531 37.214844 36.195313 37.5 34.53125 C 38.234375 34.183594 40.542969 32.941406 40.96875 29.34375 C 41.113281 28.101563 40.734375 27.050781 40.25 26.3125 C 39.960938 25.875 39.667969 25.722656 39.375 25.46875 C 40.078125 23.238281 41 19.785156 41 16 C 41 14.261719 40.644531 11.882813 39.46875 9.8125 C 38.363281 7.867188 36.363281 6.257813 33.53125 6.0625 C 32.246094 4.113281 29.46875 2 24.71875 2 Z M 24.71875 4 C 29.214844 4 31.367188 6.082031 32.125 7.46875 C 32.296875 7.792969 32.632813 7.996094 33 8 C 35.441406 8 36.789063 9.179688 37.71875 10.8125 C 38.648438 12.445313 39 14.558594 39 16 C 39 19.707031 37.992188 23.355469 37.3125 25.4375 C 37.175781 25.878906 37.355469 26.355469 37.75 26.59375 C 37.921875 26.699219 38.316406 27.011719 38.59375 27.4375 C 38.871094 27.863281 39.058594 28.375 38.96875 29.125 C 38.585938 32.347656 36.34375 32.96875 36.34375 32.96875 C 35.96875 33.089844 35.699219 33.421875 35.65625 33.8125 C 35.539063 34.917969 34.703125 37.160156 33.3125 39.25 C 31.921875 41.339844 30.011719 43.332031 27.90625 44.3125 C 27.742188 44.386719 27.601563 44.507813 27.5 44.65625 C 26.960938 45.460938 26.046875 46 25 46 C 23.953125 46 23.039063 45.460938 22.5 44.65625 C 22.398438 44.507813 22.257813 44.386719 22.09375 44.3125 C 19.980469 43.332031 18.058594 41.339844 16.65625 39.25 C 15.253906 37.160156 14.394531 34.914063 14.28125 33.8125 C 14.234375 33.441406 13.980469 33.125 13.625 33 C 13.625 33 11.378906 32.324219 11 29.09375 C 10.910156 28.339844 11.101563 27.820313 11.375 27.40625 C 11.648438 26.992188 12.007813 26.707031 12.1875 26.59375 C 12.597656 26.351563 12.78125 25.855469 12.625 25.40625 C 12.019531 23.660156 11 18.875 11 17.59375 C 11 13.300781 12.1875 9.929688 14.4375 7.625 C 16.6875 5.320313 20.0625 4 24.71875 4 Z M 32.3125 11.625 C 32.28125 11.632813 32.25 11.644531 32.21875 11.65625 C 32.199219 11.664063 32.175781 11.675781 32.15625 11.6875 C 32.078125 11.710938 32.007813 11.742188 31.9375 11.78125 C 31.917969 11.789063 31.894531 11.800781 31.875 11.8125 C 31.875 11.824219 31.875 11.832031 31.875 11.84375 C 31.84375 11.863281 31.8125 11.882813 31.78125 11.90625 C 31.757813 11.925781 31.738281 11.945313 31.71875 11.96875 C 31.707031 11.988281 31.695313 12.011719 31.6875 12.03125 C 31.640625 12.089844 31.597656 12.152344 31.5625 12.21875 C 31.5625 12.21875 31.5625 12.25 31.5625 12.25 C 31.550781 12.269531 31.539063 12.292969 31.53125 12.3125 C 31.449219 12.46875 31.054688 13.164063 30 14.03125 C 28.820313 15 26.945313 16 24 16 C 22.125 16 19.773438 16.015625 17.75 16.75 C 16.738281 17.117188 15.792969 17.683594 15.09375 18.5625 C 14.394531 19.441406 14 20.609375 14 22 C 13.996094 22.359375 14.183594 22.695313 14.496094 22.878906 C 14.808594 23.058594 15.191406 23.058594 15.503906 22.878906 C 15.816406 22.695313 16.003906 22.359375 16 22 C 16 20.972656 16.25 20.324219 16.65625 19.8125 C 17.0625 19.300781 17.664063 18.90625 18.4375 18.625 C 19.984375 18.066406 22.15625 18 24 18 C 27.40625 18 29.800781 16.8125 31.28125 15.59375 C 31.777344 15.1875 32.152344 14.78125 32.46875 14.40625 C 33.4375 15.964844 35 18.90625 35 22 C 34.996094 22.359375 35.183594 22.695313 35.496094 22.878906 C 35.808594 23.058594 36.191406 23.058594 36.503906 22.878906 C 36.816406 22.695313 37.003906 22.359375 37 22 C 37 17.03125 33.992188 12.960938 33.46875 12.28125 C 33.46875 12.269531 33.46875 12.261719 33.46875 12.25 C 33.445313 12.21875 33.386719 12.105469 33.375 12.09375 C 33.355469 12.070313 33.335938 12.050781 33.3125 12.03125 C 33.3125 12.03125 33.28125 12 33.28125 12 C 33.273438 11.980469 33.261719 11.957031 33.25 11.9375 C 33.238281 11.9375 33.230469 11.9375 33.21875 11.9375 C 33.140625 11.847656 33.042969 11.773438 32.9375 11.71875 C 32.925781 11.707031 32.917969 11.699219 32.90625 11.6875 C 32.886719 11.675781 32.863281 11.664063 32.84375 11.65625 C 32.832031 11.65625 32.824219 11.65625 32.8125 11.65625 C 32.792969 11.644531 32.769531 11.632813 32.75 11.625 C 32.730469 11.625 32.707031 11.625 32.6875 11.625 C 32.675781 11.625 32.667969 11.625 32.65625 11.625 C 32.636719 11.625 32.613281 11.625 32.59375 11.625 C 32.582031 11.625 32.574219 11.625 32.5625 11.625 C 32.542969 11.625 32.519531 11.625 32.5 11.625 C 32.488281 11.625 32.480469 11.625 32.46875 11.625 C 32.449219 11.625 32.425781 11.625 32.40625 11.625 C 32.375 11.625 32.34375 11.625 32.3125 11.625 Z M 19.5 27 C 18.671875 27 18 27.671875 18 28.5 C 18 29.328125 18.671875 30 19.5 30 C 20.328125 30 21 29.328125 21 28.5 C 21 27.671875 20.328125 27 19.5 27 Z M 30.5 27 C 29.671875 27 29 27.671875 29 28.5 C 29 29.328125 29.671875 30 30.5 30 C 31.328125 30 32 29.328125 32 28.5 C 32 27.671875 31.328125 27 30.5 27 Z" c-familyTree_familyTree=""></path>
      </svg>